<svg height="496pt" viewBox="0 0 496 496.01604" width="496pt" xmlns="http://www.w3.org/2000/svg">
  <path d="m239.984375 144.015625h16v16h-16zm0 0"/>
  <path d="m239.984375 176.015625h16v40h-16zm0 0"/>
  <path d="m146.582031 223.484375 4.945313-15.214844 15.214844 4.941407-4.945313 15.21875zm0 0"/>
  <path d="m177.046875 233.371094 4.941406-15.214844 38.046875 12.359375-4.945312 15.214844zm0 0"/>
  <path d="m180.382812 327.4375 9.402344-12.945312 12.945313 9.40625-9.40625 12.945312zm0 0"/>
  <path d="m199.191406 301.558594 23.511719-32.359375 12.941406 9.402343-23.511719 32.363282zm0 0"/>
  <path d="m293.234375 323.929688 12.945313-9.402344 9.402343 12.941406-12.941406 9.40625zm0 0"/>
  <path d="m260.316406 278.613281 12.945313-9.402343 23.511719 32.359374-12.945313 9.402344zm0 0"/>
  <path d="m329.175781 213.214844 15.214844-4.945313 4.945313 15.214844-15.21875 4.945313zm0 0"/>
  <path d="m275.925781 230.515625 38.039063-12.359375 4.945312 15.214844-38.042968 12.363281zm0 0"/>
  <path d="m271.683594 261.65625 7.085937-3.632812-3.601562-7.113282c-1.925781-3.796875-3.308594-7.078125-4.359375-10.316406-1.046875-3.226562-1.855469-6.699219-2.535156-10.90625l-1.261719-7.855469-7.867188 1.222657c-8.246093 1.296874-14.0625 1.296874-22.3125 0l-7.863281-1.222657-1.261719 7.855469c-.679687 4.207031-1.488281 7.679688-2.539062 10.914062-1.046875 3.230469-2.429688 6.511719-4.359375 10.308594l-3.597656 7.113282 7.085937 3.632812c3.714844 1.894531 6.847656 3.792969 9.59375 5.785156 2.742187 1.992188 5.429687 4.320313 8.464844 7.335938l5.628906 5.605468 5.640625-5.605468c3.03125-3.015625 5.722656-5.34375 8.472656-7.34375 2.726563-1.984375 5.871094-3.882813 9.585938-5.777344zm-18.992188-7.167969c-1.585937 1.152344-3.136718 2.375-4.707031 3.71875-1.566406-1.34375-3.117187-2.558593-4.703125-3.710937-1.566406-1.144532-3.222656-2.238282-4.984375-3.328125.792969-1.910157 1.480469-3.785157 2.074219-5.617188.597656-1.832031 1.144531-3.75 1.621094-5.773437 4.128906.328125 7.851562.328125 11.976562 0 .488281 2.023437 1.023438 3.933594 1.625 5.765625s1.289062 3.703125 2.078125 5.625c-1.757813 1.070312-3.414063 2.183593-4.980469 3.320312zm0 0"/><path d="m448.691406 185.976562c-4.785156-1.617187-9.699218-2.480468-14.632812-2.976562 3.800781-3.457031 7.304687-7.273438 10.289062-11.527344 22.0625-31.511718 15.269532-75.816406-15.136718-98.753906-14.585938-10.992188-33.191407-15.640625-51.023438-12.75l-.019531-.144531c-2.847657-18.65625-12.542969-35.054688-27.300781-46.191407-14.730469-11.105468-32.753907-15.65625-50.777344-12.800781-18.28125 2.894531-34.3125 13.015625-45.152344 28.496094-2.75 3.9375-5.046875 8.175781-6.953125 12.59375-1.902344-4.417969-4.199219-8.65625-6.949219-12.585937-10.832031-15.488282-26.867187-25.601563-45.152344-28.496094-17.984374-2.832032-36.050781 1.695312-50.777343 12.800781-14.757813 11.144531-24.457031 27.535156-27.304688 46.191406l-.015625.144531c-17.855468-2.898437-36.449218 1.757813-51.023437 12.75-30.398438 22.929688-37.191407 67.234376-15.128907 98.761719 2.976563 4.246094 6.480469 8.03125 10.25 11.472657-4.945312.496093-9.847656 1.414062-14.601562 3.023437-35.832031 12.085937-55.550781 52.078125-43.945312 89.152344 5.632812 17.984375 17.699218 32.640625 33.992187 41.253906l.21875.121094-.199219.359375c-8.25 16.808594-9.699218 35.9375-4.089844 53.863281 5.753907 18.378906 18.160157 33.195313 34.921876 41.738281 9.550781 4.863282 19.855468 7.320313 30.230468 7.320313 7.152344 0 14.335938-1.167969 21.320313-3.519531 4.550781-1.539063 8.878906-3.664063 13.007812-6.136719-1.039062 4.925781-1.71875 9.953125-1.71875 15.039062 0 39.0625 30.742188 70.832031 68.535157 70.832031 18.03125 0 35.671874-7.542968 48.421874-20.703124 12.761719 13.167968 30.394532 20.710937 48.433594 20.710937 37.792969 0 68.535156-31.777344 68.535156-70.832031 0-5.121094-.703124-10.128906-1.742187-15.054688 4.144531 2.480469 8.480469 4.613282 13.039063 6.152344 6.984374 2.359375 14.167968 3.519531 21.320312 3.519531 10.367188 0 20.679688-2.457031 30.230469-7.320312 16.769531-8.535157 29.167969-23.359375 34.929687-41.738281 5.605469-17.925782 4.160156-37.0625-4.097656-53.863282l-.183594-.375.214844-.121094c16.289062-8.613281 28.355469-23.269531 33.984375-41.253906 11.609375-37.074218-8.109375-77.066406-43.949219-89.152344zm-73.898437 94.832032-78.6875-25.5625-4.945313 15.21875 78.691406 25.558594c14.175782 31.113281 4.78125 67.640624-23.121093 87.914062-27.90625 20.269531-65.542969 17.910156-90.746094-5.183594v-82.738281h-16v82.738281c-25.207031 23.09375-62.847656 25.429688-90.742187 5.183594-27.90625-20.28125-37.296876-56.800781-23.121094-87.914062l78.6875-25.558594-4.941406-15.21875-78.6875 25.5625c-29.769532-16.832032-43.632813-51.90625-32.96875-84.710938 9.789062-30.121094 37.414062-49.691406 68.167968-49.691406 2.734375 0 5.496094.210938 8.269532.53125l48.648437 66.949219 12.945313-9.40625-48.632813-66.929688c6.808594-33.503906 35.871094-57.535156 70.375-57.535156s63.570313 24.03125 70.371094 57.535156l-48.632813 66.929688 12.941406 9.40625 48.632813-66.925781c33.945313-3.847657 65.800781 16.335937 76.457031 49.144531 10.671875 32.796875-3.191406 67.871093-32.960937 84.703125zm-106.742188-242.296875c8.328125-11.886719 20.589844-19.65625 34.535157-21.863281 13.6875-2.167969 27.414062 1.296874 38.648437 9.777343 11.238281 8.476563 18.933594 21.527344 21.121094 35.820313l2.460937 16.144531 15.832032-2.597656c13.792968-2.265625 27.625 1.183593 38.9375 9.726562 23.609374 17.800781 28.832031 52.257813 11.664062 76.808594-3.960938 5.640625-8.929688 10.441406-14.585938 14.136719-9.03125-16.777344-23.054687-29.816406-39.671874-37.671875l24.609374-10.9375-6.496093-14.625-41.304688 18.363281c-3.464843-.5625-6.984375-.90625-10.542969-1.042969l24.070313-33.132812-12.941406-9.410157-24.089844 33.152344c-1.230469-3.335937-2.648437-6.566406-4.246094-9.679687l4.703125-45.007813-15.910156-1.65625-2.800781 26.800782c-13.839844-14.722657-32.648438-24.449219-53.640625-26.90625 1.015625-9.429688 4.28125-18.535157 9.648437-26.199219zm-191.664062 46.992187c11.320312-8.535156 25.152343-11.984375 38.933593-9.726562l15.832032 2.597656 2.464844-16.144531c2.175781-14.285157 9.871093-27.34375 21.121093-35.824219 11.230469-8.476562 24.960938-11.933594 38.648438-9.773438 13.949219 2.207032 26.214843 9.976563 34.535156 21.863282 5.367187 7.664062 8.632813 16.777344 9.664063 26.183594-21 2.449218-39.808594 12.183593-53.640626 26.90625l-2.800781-26.800782-15.910156 1.65625 4.703125 45.007813c-1.601562 3.109375-3.007812 6.351562-4.246094 9.679687l-24.089844-33.152344-12.945312 9.40625 24.074219 33.136719c-3.570313.136719-7.089844.472657-10.5625 1.039063l-41.292969-18.359375-6.496094 14.625 24.566406 10.917969c-16.617187 7.851562-30.609374 20.882812-39.625 37.648437-5.648437-3.695313-10.628906-8.445313-14.589843-14.101563-17.175781-24.535156-11.945313-58.984374 11.65625-76.785156zm38.230469 315.617188c-12.984376 4.382812-26.902344 3.359375-39.167969-2.898438-12.902344-6.558594-22.464844-18.023437-26.910157-32.253906-4.320312-13.800781-3.160156-29.121094 3.175782-42.039062l7.023437-14.3125-13.9375-7.371094c-12.527343-6.628906-21.832031-17.957032-26.199219-31.894532-9.023437-28.832031 6.136719-59.871093 33.792969-69.207031 5.992188-2.023437 12.269531-2.808593 18.527344-2.511719-5.007813 21.574219-1.625 43.496094 8.511719 61.953126l-26.359375-5.617188-3.335938 15.65625 44.261719 9.429688c2.464844 2.480468 5.097656 4.816406 7.882812 7.015624l-38.976562 12.664063 4.945312 15.21875 38.972657-12.664063c-.957031 3.421876-1.71875 6.863282-2.253907 10.320313l-30.265624 33.648437 11.898437 10.703126 18.023437-20.039063c2.574219 20.277344 12.253907 39.429687 28.136719 53.8125-5.210937 4.609375-11.242187 8.1875-17.746093 10.386719zm181.792968 78.894531c-13.984375 0-27.136718-5.664063-37.039062-15.960937l-11.386719-11.808594-11.375 11.816406c-9.910156 10.289062-23.0625 15.953125-37.046875 15.953125-28.96875 0-52.535156-24.597656-52.535156-54.832031 0-7.351563 1.445312-14.589844 4.167968-21.3125 12.734376 6.625 26.566407 9.914062 40.351563 9.914062 5.480469 0 10.933594-.5625 16.320313-1.585937l-13.496094 23.34375 13.847656 8 22.664062-39.207031c3.109376-1.574219 6.160157-3.328126 9.101563-5.296876v40.976563h16v-40.984375c2.960937 1.96875 6 3.761719 9.128906 5.335938l22.640625 39.167968 13.847656-8-13.496093-23.34375c18.90625 3.59375 38.808593.898438 56.585937-8.320312 2.71875 6.722656 4.246094 13.90625 4.246094 21.304687.007812 30.242188-23.558594 54.839844-52.527344 54.839844zm180.960938-209.671875c-4.359375 13.9375-13.664063 25.265625-26.191406 31.894531l-13.945313 7.371094 7.023437 14.3125c6.34375 12.917969 7.503907 28.238281 3.183594 42.039063-4.457031 14.230468-14.015625 25.695312-26.917968 32.253906-12.265626 6.25-26.167969 7.296875-39.167969 2.898437-6.511719-2.191406-12.539063-5.769531-17.761719-10.386719 15.878906-14.382812 25.558594-33.535156 28.136719-53.816406l18.023437 20.042969 11.894532-10.707031-30.261719-33.644532c-.535157-3.457031-1.296875-6.90625-2.257813-10.320312l38.976563 12.664062 4.945312-15.21875-38.976562-12.664062c2.785156-2.199219 5.421875-4.535156 7.878906-7.015625l44.265625-9.429687-3.335938-15.65625-26.359374 5.613281c10.125-18.4375 13.511718-40.34375 8.519531-61.894531 6.238281-.296876 12.496093.425781 18.519531 2.457031 27.679688 9.335937 42.832031 40.382812 33.808594 69.207031zm0 0"/>
</svg>